<svg width="40" height="40" viewBox="0 0 40 40" fill="none" xmlns="http://www.w3.org/2000/svg">
<rect width="40" height="40" rx="5" fill="#2EA966"/>
<path d="M31.0833 5.75H8.91667C7.175 5.75 5.75 7.175 5.75 8.91667V31.0833C5.75 32.825 7.175 34.25 8.91667 34.25H31.0833C32.825 34.25 34.25 32.825 34.25 31.0833V8.91667C34.25 7.175 32.825 5.75 31.0833 5.75ZM31.0833 31.0833H8.91667V8.91667H31.0833V31.0833Z" fill="white"/>
<path d="M12.875 29.5C14.1867 29.5 15.25 28.4367 15.25 27.125C15.25 25.8133 14.1867 24.75 12.875 24.75C11.5633 24.75 10.5 25.8133 10.5 27.125C10.5 28.4367 11.5633 29.5 12.875 29.5Z" fill="white"/>
<path d="M12.875 15.25C14.1867 15.25 15.25 14.1867 15.25 12.875C15.25 11.5633 14.1867 10.5 12.875 10.5C11.5633 10.5 10.5 11.5633 10.5 12.875C10.5 14.1867 11.5633 15.25 12.875 15.25Z" fill="white"/>
<path d="M20 22.375C21.3117 22.375 22.375 21.3117 22.375 20C22.375 18.6883 21.3117 17.625 20 17.625C18.6883 17.625 17.625 18.6883 17.625 20C17.625 21.3117 18.6883 22.375 20 22.375Z" fill="white"/>
<path d="M27.125 29.5C28.4367 29.5 29.5 28.4367 29.5 27.125C29.5 25.8133 28.4367 24.75 27.125 24.75C25.8133 24.75 24.75 25.8133 24.75 27.125C24.75 28.4367 25.8133 29.5 27.125 29.5Z" fill="white"/>
<path d="M27.125 15.25C28.4367 15.25 29.5 14.1867 29.5 12.875C29.5 11.5633 28.4367 10.5 27.125 10.5C25.8133 10.5 24.75 11.5633 24.75 12.875C24.75 14.1867 25.8133 15.25 27.125 15.25Z" fill="white"/>
</svg>
