<svg width="40" height="40" viewBox="0 0 40 40" fill="none" xmlns="http://www.w3.org/2000/svg">
<rect width="40" height="40" rx="5" fill="#5E7AA9"/>
<path d="M32.998 23.6708L35.0834 21.5854L32.998 19.5L27.7917 24.7062L15.2938 12.2083L20.5001 7.00204L18.4147 4.91663L16.3292 7.00204L14.2438 4.91663L11.123 8.03746L9.03758 5.95204L6.95216 8.03746L9.03758 10.1229L5.91675 13.2437L8.00216 15.3291L5.91675 17.4145L8.00216 19.5L13.2084 14.2937L25.7063 26.7916L20.5001 31.9979L22.5855 34.0833L24.6709 31.9979L26.7563 34.0833L29.8772 30.9625L31.9626 33.0479L34.048 30.9625L31.9626 28.877L35.0834 25.7562L32.998 23.6708Z" fill="white"/>
</svg>
