<svg width="40" height="40" viewBox="0 0 40 40" fill="none" xmlns="http://www.w3.org/2000/svg">
<rect width="40" height="40" rx="5" fill="#FD9841"/>
<path d="M24.5105 10.75C22.5126 10.75 20.8647 12.9666 20.8647 15.7083C20.8647 17.8666 21.8855 19.6604 23.3001 20.3458L23.4167 20.4041V29.7083H25.6042V20.4041L25.7209 20.3604C27.1355 19.675 28.1563 17.8812 28.1563 15.7229C28.1563 12.9812 26.523 10.75 24.5105 10.75ZM18.3126 10.75C17.9188 10.75 17.5834 11.0708 17.5834 11.4791V15.125H16.4897V11.4791C16.4897 11.0708 16.1688 10.75 15.7605 10.75C15.3522 10.75 15.0313 11.0708 15.0313 11.4791V15.125H13.9376V11.4791C13.9376 11.0708 13.6167 10.75 13.2084 10.75C12.8001 10.75 12.4792 11.0708 12.4792 11.4791V17.0208C12.4792 18.377 13.4126 19.5145 14.6667 19.8354V29.7083H16.8542V19.8354C18.1084 19.5145 19.0417 18.377 19.0417 17.0208V11.4791C19.0417 11.0708 18.7209 10.75 18.3126 10.75ZM32.1667 7.83329H8.83341V31.1666H32.1667V7.83329ZM32.1667 4.91663C33.7709 4.91663 35.0834 6.22913 35.0834 7.83329V31.1666C35.0834 32.7708 33.7709 34.0833 32.1667 34.0833H8.83341C7.22925 34.0833 5.91675 32.7708 5.91675 31.1666V7.83329C5.91675 6.22913 7.22925 4.91663 8.83341 4.91663H32.1667Z" fill="white"/>
</svg>
