<svg width="40" height="40" viewBox="0 0 40 40" fill="none" xmlns="http://www.w3.org/2000/svg">
<rect width="40" height="40" rx="5" fill="#A379DA"/>
<path d="M31.8312 12.5438L31.8458 12.5292L26.4208 7.10417L24.8749 8.65L27.952 11.7271C26.5812 12.2521 25.6041 13.5646 25.6041 15.125C25.6041 17.1375 27.2374 18.7708 29.2499 18.7708C29.7749 18.7708 30.2562 18.6542 30.7083 18.4646V28.9792C30.7083 29.7813 30.052 30.4375 29.2499 30.4375C28.4478 30.4375 27.7916 29.7813 27.7916 28.9792V22.4167C27.7916 20.8125 26.4791 19.5 24.8749 19.5H23.4166V9.29167C23.4166 7.6875 22.1041 6.375 20.4999 6.375H11.7499C10.1458 6.375 8.83325 7.6875 8.83325 9.29167V32.625H23.4166V21.6875H25.6041V28.9792C25.6041 30.9917 27.2374 32.625 29.2499 32.625C31.2624 32.625 32.8958 30.9917 32.8958 28.9792V15.125C32.8958 14.1188 32.4874 13.2 31.8312 12.5438ZM20.4999 21.6875V29.7083H11.7499V19.5H20.4999V21.6875ZM20.4999 16.5833H11.7499V9.29167H20.4999V16.5833ZM29.2499 16.5833C28.4478 16.5833 27.7916 15.9271 27.7916 15.125C27.7916 14.3229 28.4478 13.6667 29.2499 13.6667C30.052 13.6667 30.7083 14.3229 30.7083 15.125C30.7083 15.9271 30.052 16.5833 29.2499 16.5833Z" fill="white"/>
</svg>
