<svg width="40" height="40" viewBox="0 0 40 40" fill="none" xmlns="http://www.w3.org/2000/svg">
<rect width="40" height="40" rx="5" fill="#5E75C9"/>
<path d="M30 23V11C30 9.35 28.65 8 27 8H6C4.35 8 3 9.35 3 11V23C3 24.65 4.35 26 6 26H27C28.65 26 30 24.65 30 23ZM27 23H6V11H27V23ZM16.5 12.5C14.01 12.5 12 14.51 12 17C12 19.49 14.01 21.5 16.5 21.5C18.99 21.5 21 19.49 21 17C21 14.51 18.99 12.5 16.5 12.5ZM36 12.5V29C36 30.65 34.65 32 33 32H7.5C7.5 30.5 7.5 30.65 7.5 29H33V12.5C34.65 12.5 34.5 12.5 36 12.5Z" fill="white"/>
</svg>
