<svg width="40" height="40" viewBox="0 0 40 40" fill="none" xmlns="http://www.w3.org/2000/svg">
<rect width="40" height="40" rx="5" fill="#F28260"/>
<path d="M31.5333 9.76625C31.2 8.8075 30.2667 8.125 29.1667 8.125H25V4.875H15V8.125H10.8333C9.73333 8.125 8.81667 8.8075 8.46667 9.76625L5 19.5V32.5C5 33.3937 5.75 34.125 6.66667 34.125H8.33333C9.25 34.125 10 33.3937 10 32.5V30.875H30V32.5C30 33.3937 30.75 34.125 31.6667 34.125H33.3333C34.25 34.125 35 33.3937 35 32.5V19.5L31.5333 9.76625ZM11.4167 11.375H28.5667L30.3 16.25H9.68333L11.4167 11.375ZM31.6667 27.625H8.33333V20.0525L8.53333 19.5H31.4833L31.6667 20.0525V27.625Z" fill="white"/>
<path d="M12.5 26C13.8807 26 15 24.9087 15 23.5625C15 22.2163 13.8807 21.125 12.5 21.125C11.1193 21.125 10 22.2163 10 23.5625C10 24.9087 11.1193 26 12.5 26Z" fill="white"/>
<path d="M27.5 26C28.8807 26 30 24.9087 30 23.5625C30 22.2163 28.8807 21.125 27.5 21.125C26.1193 21.125 25 22.2163 25 23.5625C25 24.9087 26.1193 26 27.5 26Z" fill="white"/>
</svg>
