<svg width="40" height="40" viewBox="0 0 40 40" fill="none" xmlns="http://www.w3.org/2000/svg">
<rect width="40" height="40" rx="5" fill="#85C5D7"/>
<path d="M30 10.25H26.6666C26.6666 6.84292 23.6833 4.08334 20 4.08334C16.3166 4.08334 13.3333 6.84292 13.3333 10.25H9.99996C8.16663 10.25 6.66663 11.6375 6.66663 13.3333V31.8333C6.66663 33.5292 8.16663 34.9167 9.99996 34.9167H30C31.8333 34.9167 33.3333 33.5292 33.3333 31.8333V13.3333C33.3333 11.6375 31.8333 10.25 30 10.25ZM20 7.16667C21.8333 7.16667 23.3333 8.55417 23.3333 10.25H16.6666C16.6666 8.55417 18.1666 7.16667 20 7.16667ZM30 31.8333H9.99996V13.3333H13.3333V16.4167C13.3333 17.2646 14.0833 17.9583 15 17.9583C15.9166 17.9583 16.6666 17.2646 16.6666 16.4167V13.3333H23.3333V16.4167C23.3333 17.2646 24.0833 17.9583 25 17.9583C25.9166 17.9583 26.6666 17.2646 26.6666 16.4167V13.3333H30V31.8333Z" fill="white"/>
</svg>
