<svg width="40" height="40" viewBox="0 0 40 40" fill="none" xmlns="http://www.w3.org/2000/svg">
<rect width="40" height="40" rx="5" fill="#F4C673"/>
<path d="M33.65 8.33333H6.66671C4.83337 8.33333 3.35004 9.75833 3.35004 11.5V17.8333C5.18337 17.8333 6.66671 19.2583 6.66671 21C6.66671 22.7417 5.18337 24.1667 3.33337 24.1667V30.5C3.33337 32.2417 4.83337 33.6667 6.66671 33.6667H33.3334C35.1667 33.6667 36.6667 32.2417 36.6667 30.5V11.5C36.6667 9.75833 35.3167 8.33333 33.65 8.33333ZM33.3334 30.5H6.66671V26.4783C8.65004 25.3858 10 23.3275 10 21C10 18.6567 8.66671 16.6142 6.68337 15.5217L6.66671 11.5H33.3334V30.5ZM14.7834 26.795L12.0167 22.235L13.5667 21.8392L15.6667 23.4067L19.65 22.3933L15.65 15.8067L17.9834 15.205L24.6667 21.1267L28.7334 20.0975C29.5834 19.8758 30.4667 20.3667 30.7 21.1742C30.9167 21.9817 30.4167 22.8208 29.55 23.0583L14.7834 26.795Z" fill="white"/>
</svg>
