<?xml version="1.0" standalone="no"?>
<svg xmlns:xlink="http://www.w3.org/1999/xlink" id="wave" style="transform:rotate(0deg); transition: 0.3s" viewBox="0 0 1440 490" version="1.1" xmlns="http://www.w3.org/2000/svg"><defs><linearGradient id="sw-gradient-0" x1="0" x2="0" y1="1" y2="0"><stop stop-color="rgba(0, 5.91, 255, 1)" offset="0%"/><stop stop-color="rgba(162.008, 47.92, 61.005, 1)" offset="100%"/></linearGradient></defs><path style="transform:translate(0, 0px); opacity:1" fill="url(#sw-gradient-0)" d="M0,0L48,73.5C96,147,192,294,288,334.8C384,376,480,310,576,253.2C672,196,768,147,864,114.3C960,82,1056,65,1152,81.7C1248,98,1344,147,1440,179.7C1536,212,1632,229,1728,196C1824,163,1920,82,2016,98C2112,114,2208,229,2304,228.7C2400,229,2496,114,2592,130.7C2688,147,2784,294,2880,367.5C2976,441,3072,441,3168,400.2C3264,359,3360,278,3456,220.5C3552,163,3648,131,3744,163.3C3840,196,3936,294,4032,277.7C4128,261,4224,131,4320,106.2C4416,82,4512,163,4608,179.7C4704,196,4800,147,4896,114.3C4992,82,5088,65,5184,81.7C5280,98,5376,147,5472,179.7C5568,212,5664,229,5760,236.8C5856,245,5952,245,6048,253.2C6144,261,6240,278,6336,310.3C6432,343,6528,392,6624,359.3C6720,327,6816,212,6864,155.2L6912,98L6912,490L6864,490C6816,490,6720,490,6624,490C6528,490,6432,490,6336,490C6240,490,6144,490,6048,490C5952,490,5856,490,5760,490C5664,490,5568,490,5472,490C5376,490,5280,490,5184,490C5088,490,4992,490,4896,490C4800,490,4704,490,4608,490C4512,490,4416,490,4320,490C4224,490,4128,490,4032,490C3936,490,3840,490,3744,490C3648,490,3552,490,3456,490C3360,490,3264,490,3168,490C3072,490,2976,490,2880,490C2784,490,2688,490,2592,490C2496,490,2400,490,2304,490C2208,490,2112,490,2016,490C1920,490,1824,490,1728,490C1632,490,1536,490,1440,490C1344,490,1248,490,1152,490C1056,490,960,490,864,490C768,490,672,490,576,490C480,490,384,490,288,490C192,490,96,490,48,490L0,490Z"/><defs><linearGradient id="sw-gradient-1" x1="0" x2="0" y1="1" y2="0"><stop stop-color="rgba(58.343, 12.419, 152.9, 1)" offset="0%"/><stop stop-color="rgba(44.446, 46.898, 250.802, 1)" offset="100%"/></linearGradient></defs><path style="transform:translate(0, 50px); opacity:0.9" fill="url(#sw-gradient-1)" d="M0,245L48,220.5C96,196,192,147,288,163.3C384,180,480,261,576,285.8C672,310,768,278,864,245C960,212,1056,180,1152,212.3C1248,245,1344,343,1440,359.3C1536,376,1632,310,1728,245C1824,180,1920,114,2016,147C2112,180,2208,310,2304,318.5C2400,327,2496,212,2592,204.2C2688,196,2784,294,2880,294C2976,294,3072,196,3168,196C3264,196,3360,294,3456,351.2C3552,408,3648,425,3744,432.8C3840,441,3936,441,4032,424.7C4128,408,4224,376,4320,367.5C4416,359,4512,376,4608,392C4704,408,4800,425,4896,359.3C4992,294,5088,147,5184,114.3C5280,82,5376,163,5472,204.2C5568,245,5664,245,5760,277.7C5856,310,5952,376,6048,351.2C6144,327,6240,212,6336,179.7C6432,147,6528,196,6624,204.2C6720,212,6816,180,6864,163.3L6912,147L6912,490L6864,490C6816,490,6720,490,6624,490C6528,490,6432,490,6336,490C6240,490,6144,490,6048,490C5952,490,5856,490,5760,490C5664,490,5568,490,5472,490C5376,490,5280,490,5184,490C5088,490,4992,490,4896,490C4800,490,4704,490,4608,490C4512,490,4416,490,4320,490C4224,490,4128,490,4032,490C3936,490,3840,490,3744,490C3648,490,3552,490,3456,490C3360,490,3264,490,3168,490C3072,490,2976,490,2880,490C2784,490,2688,490,2592,490C2496,490,2400,490,2304,490C2208,490,2112,490,2016,490C1920,490,1824,490,1728,490C1632,490,1536,490,1440,490C1344,490,1248,490,1152,490C1056,490,960,490,864,490C768,490,672,490,576,490C480,490,384,490,288,490C192,490,96,490,48,490L0,490Z"/><defs><linearGradient id="sw-gradient-2" x1="0" x2="0" y1="1" y2="0"><stop stop-color="rgba(40.165, 0, 255, 1)" offset="0%"/><stop stop-color="rgba(0, 255, 161.411, 1)" offset="100%"/></linearGradient></defs><path style="transform:translate(0, 100px); opacity:0.8" fill="url(#sw-gradient-2)" d="M0,245L48,269.5C96,294,192,343,288,367.5C384,392,480,392,576,400.2C672,408,768,425,864,359.3C960,294,1056,147,1152,98C1248,49,1344,98,1440,147C1536,196,1632,245,1728,261.3C1824,278,1920,261,2016,212.3C2112,163,2208,82,2304,57.2C2400,33,2496,65,2592,130.7C2688,196,2784,294,2880,343C2976,392,3072,392,3168,351.2C3264,310,3360,229,3456,171.5C3552,114,3648,82,3744,89.8C3840,98,3936,147,4032,179.7C4128,212,4224,229,4320,220.5C4416,212,4512,180,4608,171.5C4704,163,4800,180,4896,212.3C4992,245,5088,294,5184,261.3C5280,229,5376,114,5472,65.3C5568,16,5664,33,5760,98C5856,163,5952,278,6048,310.3C6144,343,6240,294,6336,261.3C6432,229,6528,212,6624,245C6720,278,6816,359,6864,400.2L6912,441L6912,490L6864,490C6816,490,6720,490,6624,490C6528,490,6432,490,6336,490C6240,490,6144,490,6048,490C5952,490,5856,490,5760,490C5664,490,5568,490,5472,490C5376,490,5280,490,5184,490C5088,490,4992,490,4896,490C4800,490,4704,490,4608,490C4512,490,4416,490,4320,490C4224,490,4128,490,4032,490C3936,490,3840,490,3744,490C3648,490,3552,490,3456,490C3360,490,3264,490,3168,490C3072,490,2976,490,2880,490C2784,490,2688,490,2592,490C2496,490,2400,490,2304,490C2208,490,2112,490,2016,490C1920,490,1824,490,1728,490C1632,490,1536,490,1440,490C1344,490,1248,490,1152,490C1056,490,960,490,864,490C768,490,672,490,576,490C480,490,384,490,288,490C192,490,96,490,48,490L0,490Z"/></svg>